<?xml version="1.0" encoding="UTF-8"?>
<svg width="37px" height="43px" viewBox="0 0 37 43" version="1.1" xmlns="http://www.w3.org/2000/svg" xmlns:xlink="http://www.w3.org/1999/xlink">
    <!-- Generator: sketchtool 41.2 (35397) - http://www.bohemiancoding.com/sketch -->
    <title>E3C0FD33-0B1F-4EA7-9F9D-13F75EBB8E71</title>
    <desc>Created with sketchtool.</desc>
    <defs>
        <filter x="-50%" y="-50%" width="200%" height="200%" filterUnits="objectBoundingBox" id="filter-1">
            <feOffset dx="0" dy="6" in="SourceAlpha" result="shadowOffsetOuter1"></feOffset>
            <feGaussianBlur stdDeviation="7.5" in="shadowOffsetOuter1" result="shadowBlurOuter1"></feGaussianBlur>
            <feColorMatrix values="0 0 0 0 0   0 0 0 0 0   0 0 0 0 0  0 0 0 0.2 0" type="matrix" in="shadowBlurOuter1" result="shadowMatrixOuter1"></feColorMatrix>
            <feMerge>
                <feMergeNode in="shadowMatrixOuter1"></feMergeNode>
                <feMergeNode in="SourceGraphic"></feMergeNode>
            </feMerge>
        </filter>
    </defs>
    <g id="Main" stroke="none" stroke-width="1" fill="none" fill-rule="evenodd" opacity="0.5">
        <g id="Collection#2" transform="translate(-1052.000000, -151.000000)" fill="#434343">
            <g id="Login_Popup-#2" filter="url(#filter-1)" transform="translate(1035.000000, 131.000000)">
                <g id="Popup">
                    <path d="M38.4666667,41.9333333 L33.1333333,41.9333333 L33.1333333,39.2666667 C33.1333333,37.7941333 34.3269333,36.6 35.8,36.6 C37.2730667,36.6 38.4666667,37.7941333 38.4666667,39.2666667 L38.4666667,41.9333333 Z M32.0666667,31.8 C32.0666667,29.7381333 33.7381333,28.0666667 35.8,28.0666667 C37.8618667,28.0666667 39.5333333,29.7381333 39.5333333,31.8 C39.5333333,33.8624 37.8618667,35.5333333 35.8,35.5333333 C33.7381333,35.5333333 32.0666667,33.8624 32.0666667,31.8 L32.0666667,31.8 Z M37.8378667,36.1413333 C39.4688,35.3744 40.6,33.7216 40.6,31.8 C40.6,29.1493333 38.4512,27 35.8,27 C33.1488,27 31,29.1493333 31,31.8 C31,33.7216 32.1312,35.3744 33.7621333,36.1413333 C32.7424,36.808 32.0666667,37.9573333 32.0666667,39.2666667 L32.0666667,43 L33.1333333,43 L35.2666667,43 L35.8,43 L38.4666667,43 L39.5333333,43 L39.5333333,39.2666667 C39.5333333,37.9573333 38.8576,36.808 37.8378667,36.1413333 L37.8378667,36.1413333 Z" id="Fill-1"></path>
                </g>
            </g>
        </g>
    </g>
</svg>