<?xml version="1.0" encoding="UTF-8"?>
<svg width="19px" height="16px" viewBox="0 0 19 16" version="1.1" xmlns="http://www.w3.org/2000/svg" xmlns:xlink="http://www.w3.org/1999/xlink">
    <!-- Generator: sketchtool 41.2 (35397) - http://www.bohemiancoding.com/sketch -->
    <title>BEA1C5BD-FAF3-419F-B13D-8E1FA17BACA5</title>
    <desc>Created with sketchtool.</desc>
    <defs></defs>
    <g id="Main" stroke="none" stroke-width="1" fill="none" fill-rule="evenodd" opacity="0.5">
        <g id="Collection#2" transform="translate(-1062.000000, -208.000000)" fill="#434343">
            <path d="M1076.15439,221.538982 C1075.47498,221.538982 1074.92357,222.089773 1074.92357,222.769799 C1074.92357,223.44921 1075.47498,224 1076.15439,224 C1076.8338,224 1077.38521,223.44921 1077.38521,222.769799 C1077.38521,222.089773 1076.8338,221.538982 1076.15439,221.538982 L1076.15439,221.538982 Z M1079.84684,210.461633 L1067.53867,210.461633 L1067.9233,211.69245 L1078.79572,211.69245 L1076.61841,219.076734 L1068.97442,219.076734 L1065.40382,208 L1062,208 L1062,209.230817 L1064.6321,209.230817 L1068.15408,220.308166 L1077.40428,220.308166 L1077.40675,220.301396 L1077.47998,220.321089 L1080.46225,210.461633 L1079.84684,210.461633 Z M1069.3849,221.538982 C1068.70549,221.538982 1068.15408,222.089773 1068.15408,222.769799 C1068.15408,223.44921 1068.70549,224 1069.3849,224 C1070.06431,224 1070.61572,223.44921 1070.61572,222.769799 C1070.61572,222.089773 1070.06431,221.538982 1069.3849,221.538982 L1069.3849,221.538982 Z" id="Fill-1"></path>
        </g>
    </g>
</svg>